<svg width="25" height="25" viewBox="0 0 25 25" fill="none" xmlns="http://www.w3.org/2000/svg">
<path d="M22.6562 20.3125H17.9688V17.1875C17.9692 16.7732 18.1339 16.376 18.4269 16.0831C18.7198 15.7902 19.117 15.6254 19.5312 15.625H21.0938V14.0625H17.9688V12.5H21.0938C21.508 12.5004 21.9052 12.6652 22.1981 12.9581C22.4911 13.251 22.6558 13.6482 22.6562 14.0625V15.625C22.6558 16.0393 22.4911 16.4365 22.1981 16.7294C21.9052 17.0223 21.508 17.1871 21.0938 17.1875H19.5312V18.75H22.6562V20.3125ZM14.8438 17.1875H11.7188C11.3045 17.1871 10.9073 17.0223 10.6144 16.7294C10.3214 16.4365 10.1567 16.0393 10.1562 15.625V7.8125C10.1567 7.39823 10.3214 7.00104 10.6144 6.7081C10.9073 6.41517 11.3045 6.25041 11.7188 6.25H14.8438C15.258 6.25041 15.6552 6.41517 15.9481 6.7081C16.2411 7.00104 16.4058 7.39823 16.4062 7.8125V15.625C16.4058 16.0393 16.2411 16.4365 15.9481 16.7294C15.6552 17.0223 15.258 17.1871 14.8438 17.1875ZM11.7188 7.8125V15.625H14.8438V7.8125H11.7188ZM8.59375 17.1875H3.90625C3.49198 17.1871 3.09479 17.0223 2.80185 16.7294C2.50892 16.4365 2.34416 16.0393 2.34375 15.625V7.8125C2.34416 7.39823 2.50892 7.00104 2.80185 6.7081C3.09479 6.41517 3.49198 6.25041 3.90625 6.25H8.59375V7.8125H3.90625V15.625H8.59375V17.1875Z" fill="#0FA958"/>
</svg>
