<svg width="70" height="70" viewBox="0 0 70 70" fill="none" xmlns="http://www.w3.org/2000/svg">
<circle cx="35" cy="35" r="35" fill="url(#paint0_linear_0_42)"/>
<g clip-path="url(#clip0_0_42)">
<path d="M30.4301 31.9715L35.9863 39.0085C35.9863 39.0085 34.9228 45.6059 31.081 48.6842C27.2392 51.7638 14 50.8833 14 50.8833C14 50.8833 14.2434 49.3919 14.7047 47.3107L20.7663 40.081C21.0206 39.7781 20.7105 39.3321 20.3403 39.4687L16.4709 40.8925C17.396 38.2073 18.567 35.7336 19.9687 34.6102C23.8105 31.5319 30.4301 31.9715 30.4301 31.9715ZM54.7777 20L53.5054 18.3887C53.1537 17.9439 52.5112 17.8698 52.0698 18.2237L37.1765 29.6834L34.9894 26.9139C34.6634 26.5007 34.0195 26.5781 33.7985 27.0563L32.1758 30.5722L37.732 37.6092L41.4988 36.8068C42.0113 36.6979 42.2304 36.0849 41.905 35.6724L39.7211 32.9061L54.6143 21.4463C55.0557 21.0931 55.1294 20.4454 54.7777 20Z" fill="white"/>
</g>
<defs>
<linearGradient id="paint0_linear_0_42" x1="6" y1="11" x2="70" y2="61.5" gradientUnits="userSpaceOnUse">
<stop stop-color="#B32700"/>
<stop offset="0.50023" stop-color="#FFC107"/>
<stop offset="0.950823" stop-color="#699BF7"/>
</linearGradient>
<clipPath id="clip0_0_42">
<rect width="41" height="33" fill="white" transform="translate(14 18)"/>
</clipPath>
</defs>
</svg>
