<svg width="27" height="27" viewBox="0 0 27 27" fill="none" xmlns="http://www.w3.org/2000/svg">
<path d="M5.625 23.625L3.375 10.125H23.625L21.375 23.625H5.625ZM11.25 16.875H15.75C16.0688 16.875 16.3361 16.767 16.5521 16.551C16.7681 16.335 16.8757 16.068 16.875 15.75C16.875 15.4313 16.767 15.1639 16.551 14.9479C16.335 14.7319 16.068 14.6243 15.75 14.625H11.25C10.9313 14.625 10.6639 14.733 10.4479 14.949C10.2319 15.165 10.1242 15.432 10.125 15.75C10.125 16.0688 10.233 16.3361 10.449 16.5521C10.665 16.7681 10.932 16.8758 11.25 16.875ZM6.75 9C6.43125 9 6.16388 8.892 5.94788 8.676C5.73188 8.46 5.62425 8.193 5.625 7.875C5.625 7.55625 5.733 7.28888 5.949 7.07288C6.165 6.85688 6.432 6.74925 6.75 6.75H20.25C20.5688 6.75 20.8361 6.858 21.0521 7.074C21.2681 7.29 21.3757 7.557 21.375 7.875C21.375 8.19375 21.267 8.46113 21.051 8.67713C20.835 8.89313 20.568 9.00075 20.25 9H6.75ZM9 5.625C8.68125 5.625 8.41388 5.517 8.19788 5.301C7.98188 5.085 7.87425 4.818 7.875 4.5C7.875 4.18125 7.983 3.91388 8.199 3.69788C8.415 3.48188 8.682 3.37425 9 3.375H18C18.3188 3.375 18.5861 3.483 18.8021 3.699C19.0181 3.915 19.1257 4.182 19.125 4.5C19.125 4.81875 19.017 5.08613 18.801 5.30213C18.585 5.51813 18.318 5.62575 18 5.625H9Z" fill="#699BF7"/>
</svg>
