<svg width="33" height="33" viewBox="0 0 33 33" fill="none" xmlns="http://www.w3.org/2000/svg">
<path d="M5.5 27.5C4.74375 27.5 4.09613 27.2305 3.55713 26.6915C3.01813 26.1525 2.74909 25.5053 2.75 24.75V8.25C2.75 7.49375 3.0195 6.84613 3.5585 6.30713C4.0975 5.76813 4.74467 5.49909 5.5 5.5H27.5C28.2563 5.5 28.9039 5.7695 29.4429 6.3085C29.9819 6.8475 30.2509 7.49467 30.25 8.25V24.75C30.25 25.5063 29.9805 26.1539 29.4415 26.6929C28.9025 27.2319 28.2553 27.5009 27.5 27.5H5.5ZM16.5 17.6344C16.6146 17.6344 16.7351 17.617 16.8616 17.5821C16.9881 17.5473 17.1082 17.496 17.2219 17.4281L26.95 11.3438C27.1333 11.2292 27.2708 11.0857 27.3625 10.9134C27.4542 10.741 27.5 10.5522 27.5 10.3469C27.5 9.88854 27.3052 9.54479 26.9156 9.31563C26.526 9.08646 26.125 9.09792 25.7125 9.35L16.5 15.125L7.2875 9.35C6.875 9.09792 6.47396 9.09242 6.08438 9.3335C5.69479 9.57459 5.5 9.91238 5.5 10.3469C5.5 10.576 5.54584 10.7768 5.6375 10.9491C5.72917 11.1215 5.86667 11.253 6.05 11.3438L15.7781 17.4281C15.8927 17.4969 16.0133 17.5487 16.1398 17.5835C16.2663 17.6183 16.3863 17.6353 16.5 17.6344Z" fill="#979797"/>
</svg>
